<svg version="1.2" xmlns="http://www.w3.org/2000/svg" viewBox="0 0 24 24" width="24" height="24"><style>.a{fill:#1e1e1e}</style><path class="a" d="m19.5 18c0.3 0.2 0.4 0.5 0.4 0.8 0 0.2-0.1 0.5-0.4 0.7-0.2 0.3-0.5 0.4-0.8 0.4-0.2 0-0.5-0.1-0.7-0.4l-6-5.9-6 5.9c-0.2 0.3-0.5 0.4-0.8 0.4-0.2 0-0.5-0.1-0.7-0.4-0.3-0.2-0.4-0.5-0.4-0.8 0-0.2 0.1-0.5 0.4-0.7l5.9-6-5.9-6c-0.3-0.2-0.4-0.5-0.4-0.8 0-0.2 0.1-0.5 0.4-0.7 0.2-0.3 0.5-0.4 0.8-0.4 0.2 0 0.5 0.1 0.7 0.4l6 5.9 6-5.9c0.2-0.3 0.5-0.4 0.8-0.4 0.2 0 0.5 0.1 0.7 0.4 0.3 0.2 0.4 0.4 0.4 0.7 0 0.3-0.1 0.6-0.4 0.8l-5.9 6z"/></svg>