<svg version="1.2" xmlns="http://www.w3.org/2000/svg" viewBox="0 0 24 24" width="24" height="24"><style>.a{fill:#00adf8}</style><path class="a" d="m21 10.8v8.7c0 0.4-0.2 0.8-0.4 1.1-0.3 0.2-0.7 0.4-1.1 0.4h-3.8c-0.3 0-0.7-0.2-1-0.4-0.3-0.3-0.5-0.7-0.5-1.1v-3.8q0-0.3-0.2-0.5-0.2-0.2-0.5-0.2h-3q-0.3 0-0.5 0.2-0.2 0.2-0.3 0.5v3.8c0 0.4-0.1 0.8-0.4 1.1-0.3 0.2-0.7 0.4-1.1 0.4h-3.7c-0.4 0-0.8-0.2-1.1-0.4-0.2-0.3-0.4-0.7-0.4-1.1v-8.7q0-0.3 0.1-0.6 0.2-0.3 0.4-0.5l7.5-7v-0.1c0.3-0.2 0.6-0.3 1-0.3 0.4 0 0.7 0.1 1 0.3q0 0 0 0.1l7.5 7q0.3 0.2 0.4 0.5 0.1 0.3 0.1 0.6z"/></svg>