<svg version="1.2" xmlns="http://www.w3.org/2000/svg" viewBox="0 0 24 24" width="24" height="24"><style>.a{fill:none;stroke:#00adf8;stroke-linecap:round;stroke-linejoin:round;stroke-width:2}</style><path fill-rule="evenodd" class="a" d="m12 21.4c5.5 0 10-4.3 10-9.7 0-5.4-4.5-9.8-10-9.8-5.5 0-10 4.4-10 9.8 0 5.4 4.5 9.7 10 9.7z"/><path fill-rule="evenodd" class="a" d="m9.1 8.8c0.2-0.7 0.7-1.2 1.3-1.6 0.6-0.3 1.3-0.5 2-0.3 0.7 0.1 1.4 0.4 1.8 1 0.5 0.5 0.7 1.1 0.7 1.8 0 2-3 3-3 3"/><path fill-rule="evenodd" class="a" d="m12 16.6"/></svg>