<svg version="1.2" xmlns="http://www.w3.org/2000/svg" viewBox="0 0 22 22" width="22" height="22"><defs><linearGradient id="P" gradientUnits="userSpaceOnUse"/><radialGradient id="g1" cx="0" cy="0" r="1" href="#P" gradientTransform="matrix(0,-21.471,21.471,0,5.923,23.5)"><stop stop-color="#fd5"/><stop offset=".1" stop-color="#fd5"/><stop offset=".5" stop-color="#ff543e"/><stop offset="1" stop-color="#c837ab"/></radialGradient><radialGradient id="g2" cx="0" cy="0" r="1" href="#P" gradientTransform="matrix(1.884,9.411,-9.411,1.884,-3.463,1.727)"><stop stop-color="#3771c8" stop-opacity="1"/><stop offset=".13" stop-color="#3771c8" stop-opacity="1"/><stop offset="1" stop-color="#60f" stop-opacity="0"/></radialGradient></defs><style>.a{fill:url(#g1)}.b{fill:url(#g2)}.c{fill:#fff}</style><path class="a" d="m11 0.2c-4.5 0-5.8 0-6.1 0-0.9 0.1-1.5 0.2-2.1 0.5-0.5 0.3-0.9 0.5-1.3 0.9q-1 1.1-1.2 2.7c-0.1 0.5-0.1 0.6-0.1 3.2 0 0.8 0 2 0 3.5 0 4.5 0 5.8 0 6.1 0.1 0.9 0.2 1.5 0.5 2.1 0.6 1.2 1.7 2.1 3 2.4 0.4 0.1 0.9 0.2 1.5 0.2 0.3 0 3 0 5.8 0 2.7 0 5.5 0 5.7 0 0.8 0 1.2-0.1 1.6-0.2 1.3-0.3 2.4-1.2 3-2.4 0.3-0.6 0.4-1.2 0.5-2.1 0-0.2 0-3.1 0-6.1 0-3 0-6 0-6.1-0.1-0.9-0.2-1.5-0.5-2.1-0.3-0.5-0.5-0.9-0.9-1.3q-1.1-1-2.7-1.2c-0.5-0.1-0.6-0.1-3.2-0.1z"/><path class="b" d="m11 0.2c-4.5 0-5.8 0-6.1 0-0.9 0.1-1.5 0.2-2.1 0.5-0.5 0.3-0.9 0.5-1.3 0.9q-1 1.1-1.2 2.7c-0.1 0.5-0.1 0.6-0.1 3.2 0 0.8 0 2 0 3.5 0 4.5 0 5.8 0 6.1 0.1 0.9 0.2 1.5 0.5 2.1 0.6 1.2 1.7 2.1 3 2.4 0.4 0.1 0.9 0.2 1.5 0.2 0.3 0 3 0 5.8 0 2.7 0 5.5 0 5.7 0 0.8 0 1.2-0.1 1.6-0.2 1.3-0.3 2.4-1.2 3-2.4 0.3-0.6 0.4-1.2 0.5-2.1 0-0.2 0-3.1 0-6.1 0-3 0-6 0-6.1-0.1-0.9-0.2-1.5-0.5-2.1-0.3-0.5-0.5-0.9-0.9-1.3q-1.1-1-2.7-1.2c-0.5-0.1-0.6-0.1-3.2-0.1z"/><path fill-rule="evenodd" class="c" d="m11 3c2.2 0 2.4 0 3.3 0 0.8 0.1 1.4 0.2 1.9 0.4 0.6 0.2 1 0.5 1.5 0.9 0.4 0.5 0.7 0.9 0.9 1.5 0.2 0.5 0.3 1 0.4 1.9 0 0.9 0 1.1 0 3.3 0 2.2 0 2.4 0 3.3-0.1 0.8-0.2 1.4-0.4 1.9-0.2 0.6-0.5 1-0.9 1.5-0.5 0.4-0.9 0.7-1.5 0.9-0.5 0.2-1.1 0.3-1.9 0.4-0.9 0-1.1 0-3.3 0-2.2 0-2.4 0-3.3 0-0.9-0.1-1.4-0.2-1.9-0.4-0.6-0.2-1-0.5-1.5-0.9-0.4-0.5-0.7-0.9-0.9-1.5-0.2-0.5-0.3-1.1-0.4-1.9 0-0.9 0-1.1 0-3.3 0-2.2 0-2.4 0-3.3 0.1-0.9 0.2-1.4 0.4-1.9 0.2-0.6 0.5-1 0.9-1.5 0.5-0.4 0.9-0.7 1.5-0.9 0.5-0.2 1.1-0.3 1.9-0.4 0.9 0 1.1 0 3.3 0zm-0.7 1.4c-1.5 0-1.8 0.1-2.5 0.1-0.8 0-1.2 0.2-1.5 0.3-0.4 0.1-0.7 0.3-0.9 0.6-0.3 0.2-0.5 0.5-0.6 0.9-0.1 0.3-0.3 0.7-0.3 1.5-0.1 0.8-0.1 1.1-0.1 3.2 0 2.1 0 2.4 0.1 3.2 0 0.8 0.2 1.2 0.3 1.5 0.1 0.4 0.3 0.7 0.6 0.9 0.2 0.3 0.5 0.5 0.9 0.6 0.3 0.1 0.7 0.3 1.5 0.3 0.8 0 1.1 0.1 3.2 0.1 2.1 0 2.4-0.1 3.2-0.1 0.8 0 1.2-0.2 1.5-0.3 0.4-0.1 0.7-0.3 0.9-0.6 0.3-0.2 0.5-0.5 0.6-0.9 0.1-0.3 0.3-0.7 0.3-1.5 0-0.8 0.1-1.1 0.1-3.2 0-2.1-0.1-2.4-0.1-3.2 0-0.8-0.2-1.2-0.3-1.5-0.1-0.4-0.3-0.7-0.6-0.9-0.2-0.3-0.5-0.5-0.9-0.6-0.3-0.1-0.7-0.3-1.5-0.3-0.8-0.1-1.1-0.1-3.2-0.1q-0.4 0-0.7 0zm5 1.4c0.5 0 0.9 0.4 0.9 0.9 0 0.6-0.4 1-0.9 1-0.6 0-1-0.4-1-1 0-0.5 0.4-0.9 1-0.9zm-0.2 5.2c0 2.3-1.8 4.1-4.1 4.1-2.3 0-4.1-1.8-4.1-4.1 0-2.3 1.8-4.1 4.1-4.1 2.3 0 4.1 1.8 4.1 4.1zm-6.8 0c0 1.5 1.2 2.7 2.7 2.7 1.5 0 2.7-1.2 2.7-2.7 0-1.5-1.2-2.7-2.7-2.7-1.5 0-2.7 1.2-2.7 2.7z"/></svg>