<svg version="1.2" xmlns="http://www.w3.org/2000/svg" viewBox="0 0 22 16" width="22" height="16"><defs><clipPath clipPathUnits="userSpaceOnUse" id="cp1"><path d="m0 0h22v16h-22z"/></clipPath></defs><style>.a{fill:#00aeef}.b{fill:#008ccf}</style><g clip-path="url(#cp1)"><path fill-rule="evenodd" class="a" d="m14.5 8c0 3.9-3.3 7.2-7.3 7.2-4 0-7.2-3.3-7.2-7.2 0-4 3.2-7.2 7.2-7.2 4 0 7.3 3.2 7.3 7.2zm-5.1 0c0-1.2-1-2.2-2.2-2.2-1.2 0-2.1 1-2.1 2.2 0 1.2 0.9 2.1 2.1 2.1 1.2 0 2.2-0.9 2.2-2.1z"/><path class="b" d="m15.4 6.2c1.8 0.5 4 0 4 0-0.7 2.7-2.7 4.4-5.5 4.6-1.1 2.6-3.7 4.4-6.7 4.4l2.2-6.9c2.2-7.1 3.4-7.5 8.7-7.5h3.6c-0.6 2.6-2.7 4.7-6.3 5.4z"/></g></svg>